<svg width="24" height="24" viewBox="0 0 24 24" fill="none" xmlns="http://www.w3.org/2000/svg">
<path fill-rule="evenodd" clip-rule="evenodd" d="M12 24C18.6274 24 24 18.6274 24 12C24 5.37258 18.6274 0 12 0C5.37258 0 0 5.37258 0 12C0 18.6274 5.37258 24 12 24ZM18.364 5.63604L12 3L5.63604 5.63604L3 12L5.63604 18.364L12 21L18.364 18.364L21 12L18.364 5.63604Z" fill="white"/>
<path fill-rule="evenodd" clip-rule="evenodd" d="M13.8114 5.23852L8.49968 5.93782L5.2382 10.1883L5.9375 15.5L10.1879 18.7615L15.4997 18.0622L18.7612 13.8117L18.0619 8.5L13.8114 5.23852ZM13.2985 7.15232L9.48995 7.65372L7.15146 10.7013L7.65286 14.5098L10.7004 16.8483L14.509 16.3469L16.8474 13.2993L16.346 9.49081L13.2985 7.15232Z" fill="white"/>
<path fill-rule="evenodd" clip-rule="evenodd" d="M13.8301 8.82991L11.0525 8.46423L8.82979 10.1697L8.4641 12.9474L10.1696 15.1701L12.9473 15.5358L15.1699 13.8302L15.5356 11.0526L13.8301 8.82991ZM13.3121 9.72728L11.3205 9.46509L9.72683 10.6879L9.46464 12.6795L10.6875 14.2732L12.6791 14.5354L14.2727 13.3125L14.5349 11.3209L13.3121 9.72728Z" fill="white"/>
</svg>
