<svg width="16" height="16" viewBox="0 0 16 16" fill="none" xmlns="http://www.w3.org/2000/svg">
<path d="M14.7891 7.89066L8.75155 1.85629L8.34686 1.4516C8.25466 1.36 8.12996 1.30859 7.99999 1.30859C7.87002 1.30859 7.74532 1.36 7.65311 1.4516L1.21093 7.89066C1.11645 7.98478 1.04178 8.09687 0.991323 8.22031C0.940871 8.34376 0.91566 8.47606 0.917179 8.60941C0.923429 9.15941 1.38124 9.59848 1.93124 9.59848H2.5953V14.6875H13.4047V9.59848H14.0828C14.35 9.59848 14.6015 9.49379 14.7906 9.30473C14.8837 9.21193 14.9575 9.10159 15.0076 8.98009C15.0578 8.8586 15.0833 8.72836 15.0828 8.59691C15.0828 8.33129 14.9781 8.07973 14.7891 7.89066ZM8.87499 13.5625H7.12499V10.375H8.87499V13.5625ZM12.2797 8.47348V13.5625H9.87499V10C9.87499 9.65473 9.5953 9.37504 9.24999 9.37504H6.74999C6.40468 9.37504 6.12499 9.65473 6.12499 10V13.5625H3.7203V8.47348H2.2203L8.00155 2.69691L8.36249 3.05785L13.7812 8.47348H12.2797Z" fill="#757575"/>
</svg>
