<svg width="24" height="24" viewBox="0 0 24 24" fill="none" xmlns="http://www.w3.org/2000/svg">
<path d="M21.2 22.4V0H2.8V22.4H0V24H24V22.4H21.2ZM19.6 22.4H12.8V19.2H11.2V22.4H4.4V1.6H19.6V22.4Z" fill="#004EAA"/>
<path d="M7.2 14.4H8.8V16H7.2V14.4Z" fill="#004EAA"/>
<path d="M11.2 14.4H12.8V16H11.2V14.4Z" fill="#004EAA"/>
<path d="M15.2 14.4H16.8V16H15.2V14.4Z" fill="#004EAA"/>
<path d="M7.2 9.6H8.8V11.2H7.2V9.6Z" fill="#004EAA"/>
<path d="M11.2 9.6H12.8V11.2H11.2V9.6Z" fill="#004EAA"/>
<path d="M15.2 9.6H16.8V11.2H15.2V9.6Z" fill="#004EAA"/>
<path d="M7.2 4.8H8.8V6.4H7.2V4.8Z" fill="#004EAA"/>
<path d="M11.2 4.8H12.8V6.4H11.2V4.8Z" fill="#004EAA"/>
<path d="M15.2 4.8H16.8V6.4H15.2V4.8Z" fill="#004EAA"/>
</svg>
