<svg width="15" height="14" viewBox="0 0 15 14" fill="none" xmlns="http://www.w3.org/2000/svg">
<path d="M14.4143 2.0857C14.0389 1.7113 13.5302 1.50105 13 1.50105C12.4697 1.50105 11.9611 1.7113 11.5856 2.0857C11.4599 2.21153 11.3517 2.35362 11.2637 2.5082L9.49997 2.02695C9.50504 1.62944 9.39152 1.23943 9.17392 0.906729C8.95631 0.574025 8.64449 0.31372 8.27827 0.159047C7.91205 0.00437483 7.50804 -0.037647 7.11782 0.0383471C6.7276 0.114341 6.36889 0.304903 6.08747 0.585703C5.78712 0.886806 5.59039 1.27569 5.52578 1.69605C5.46117 2.11641 5.53203 2.54642 5.7281 2.92383L3.60497 4.8332C3.22041 4.57855 2.75978 4.46436 2.3008 4.5099C1.84182 4.55545 1.41261 4.75794 1.0856 5.0832C0.723216 5.44612 0.5141 5.93438 0.501462 6.44709C0.488825 6.9598 0.673632 7.45777 1.01769 7.8381C1.36176 8.21843 1.83878 8.45205 2.35019 8.49069C2.86159 8.52933 3.3683 8.37002 3.7656 8.0457L8.1406 11.2557C8.00663 11.5911 7.96596 11.9564 8.0229 12.313C8.07984 12.6696 8.23227 13.0042 8.46401 13.2811C8.69575 13.5581 8.99815 13.7671 9.33911 13.8861C9.68008 14.005 10.0469 14.0294 10.4006 13.9567C10.7543 13.884 11.0818 13.7168 11.3482 13.473C11.6146 13.2292 11.81 12.9178 11.9137 12.5719C12.0173 12.226 12.0254 11.8585 11.9371 11.5083C11.8487 11.1582 11.6672 10.8385 11.4118 10.5832C11.3205 10.4919 11.2205 10.4099 11.1131 10.3382L12.825 5.48883C12.8825 5.49383 12.94 5.49633 12.9975 5.49633C13.3928 5.49615 13.7793 5.37879 14.1079 5.1591C14.4366 4.9394 14.6928 4.62721 14.8442 4.26198C14.9955 3.89674 15.0352 3.49484 14.9583 3.10705C14.8813 2.71926 14.6912 2.36297 14.4118 2.0832L14.4143 2.0857ZM10.1725 10.0088C9.65385 9.96338 9.138 10.1224 8.73497 10.452L4.35997 7.24195C4.46625 6.97457 4.51383 6.68748 4.49949 6.4001C4.48515 6.11273 4.40922 5.8318 4.27685 5.57633L6.3981 3.66695C6.62631 3.81817 6.88315 3.92093 7.15269 3.96886C7.42223 4.01679 7.69874 4.00887 7.9651 3.94559C8.23146 3.88231 8.48198 3.76502 8.70117 3.60098C8.92035 3.43695 9.10353 3.22966 9.23935 2.99195L11 3.4732C10.9944 3.80574 11.0722 4.13439 11.2262 4.42915C11.3803 4.72391 11.6057 4.97541 11.8818 5.1607L10.1725 10.0088Z" fill="#13224A"/>
</svg>
