<svg width="25" height="24" viewBox="0 0 25 24" fill="none" xmlns="http://www.w3.org/2000/svg">
<path d="M21.035 21H15.9635L18.5 15.927L21.035 21ZM18.5 13.5C18.3606 13.4999 18.224 13.5387 18.1054 13.612C17.9869 13.6852 17.891 13.7901 17.8287 13.9147L14.0787 21.4147C14.0216 21.5291 13.9946 21.6562 14.0004 21.7839C14.0062 21.9117 14.0445 22.0358 14.1118 22.1445C14.1791 22.2533 14.273 22.343 14.3847 22.4052C14.4964 22.4674 14.6221 22.5001 14.75 22.5H22.25C22.3739 22.5 22.4958 22.4694 22.6049 22.4108C22.714 22.3522 22.8069 22.2675 22.8753 22.1643C22.9438 22.061 22.9855 21.9424 22.9969 21.8191C23.0084 21.6958 22.9891 21.5715 22.9407 21.4575L19.1712 13.9147C19.1089 13.7901 19.0131 13.6852 18.8946 13.612C18.776 13.5387 18.6394 13.4999 18.5 13.5Z" fill="#BC5A00"/>
<path d="M14.5595 17.1C13.5551 17.6416 12.4404 17.9468 11.3002 17.9925C10.1601 18.0382 9.02451 17.823 7.98005 17.3635C6.93559 16.9039 6.00977 16.2121 5.2731 15.3407C4.53643 14.4693 4.00833 13.4412 3.72903 12.3348C3.44973 11.2285 3.42659 10.0729 3.66137 8.95626C3.89615 7.83959 4.38266 6.79122 5.08386 5.891C5.78505 4.99077 6.68243 4.26243 7.70765 3.76144C8.73288 3.26045 9.85891 3.00003 11 3V10.5L15.5727 15.0728L16.4877 13.2428C16.6737 12.8684 16.9607 12.5536 17.3164 12.334C17.672 12.1143 18.082 11.9986 18.5 12H19.865C20.1713 10.1824 19.9118 8.31465 19.1217 6.64941C18.3316 4.98416 17.0489 3.60186 15.4473 2.68956C13.8457 1.77726 12.0026 1.37901 10.1672 1.54871C8.33183 1.71841 6.59291 2.44786 5.18575 3.63835C3.77859 4.82883 2.77114 6.42288 2.29972 8.20477C1.82831 9.98666 1.9157 11.8704 2.55007 13.6009C3.18443 15.3315 4.33514 16.8255 5.84648 17.8806C7.35782 18.9356 9.15681 19.501 11 19.5C11.862 19.499 12.7194 19.3734 13.5455 19.1273L14.5595 17.1Z" fill="#15284B"/>
</svg>
