<svg width="25" height="24" viewBox="0 0 25 24" fill="none" xmlns="http://www.w3.org/2000/svg">
<path d="M23 18C23 17.11 22.7361 16.24 22.2416 15.4999C21.7471 14.7599 21.0443 14.1831 20.2221 13.8425C19.3998 13.5019 18.495 13.4128 17.6221 13.5865C16.7492 13.7601 15.9474 14.1887 15.318 14.818C14.6887 15.4474 14.2601 16.2492 14.0865 17.1221C13.9128 17.995 14.0019 18.8998 14.3425 19.7221C14.6831 20.5443 15.2599 21.2471 15.9999 21.7416C16.74 22.2361 17.61 22.5 18.5 22.5C19.6931 22.4986 20.8368 22.0241 21.6804 21.1804C22.5241 20.3368 22.9986 19.1931 23 18ZM21.5 18C21.4972 18.5338 21.3503 19.057 21.0748 19.5143L16.9858 15.4253C17.443 15.1498 17.9662 15.0028 18.5 15C19.2953 15.001 20.0578 15.3174 20.6202 15.8798C21.1826 16.4422 21.499 17.2047 21.5 18ZM15.5 18C15.5028 17.4662 15.6497 16.943 15.9253 16.4858L20.0143 20.5748C19.557 20.8502 19.0338 20.9972 18.5 21C17.7047 20.999 16.9422 20.6826 16.3798 20.1202C15.8174 19.5578 15.501 18.7953 15.5 18Z" fill="#BC5A00"/>
<path d="M11 1.50001C9.75027 1.49277 8.51273 1.74589 7.3662 2.24325C6.21967 2.7406 5.1893 3.4713 4.3407 4.38878C3.49211 5.30626 2.8439 6.39043 2.43736 7.57221C2.03082 8.754 1.87487 10.0075 1.97943 11.2529C2.084 12.4982 2.44679 13.7082 3.0447 14.8056C3.64261 15.9031 4.46253 16.864 5.45223 17.6271C6.44194 18.3903 7.57973 18.9389 8.79314 19.2381C10.0065 19.5373 11.269 19.5805 12.5 19.365V17.8485C11.4727 18.0582 10.4129 18.0501 9.38887 17.8249C8.36487 17.5996 7.39949 17.1622 6.55501 16.5408C5.71053 15.9193 5.00573 15.1278 4.48609 14.2171C3.96645 13.3065 3.64351 12.297 3.53813 11.2538C3.43275 10.2107 3.54726 9.15698 3.87428 8.16081C4.20129 7.16463 4.73354 6.24809 5.43667 5.47033C6.1398 4.69257 6.9982 4.07088 7.95645 3.64538C8.9147 3.21988 9.95153 3.00003 11 3.00001V10.5L14.2573 13.7573C14.8138 13.1993 15.4752 12.7568 16.2033 12.4552C16.9314 12.1537 17.7119 11.999 18.5 12H19.865C20.0925 10.7089 20.0335 9.38367 19.6922 8.11793C19.3509 6.85219 18.7356 5.67691 17.8899 4.67523C17.0442 3.67354 15.9888 2.86994 14.7982 2.32125C13.6076 1.77256 12.3109 1.4922 11 1.50001Z" fill="#15284B"/>
</svg>
