<svg width="21" height="22" viewBox="0 0 21 22" fill="none" xmlns="http://www.w3.org/2000/svg">
<path d="M10.5 0.5C8.4233 0.5 6.39323 1.11581 4.66652 2.26957C2.9398 3.42332 1.59399 5.0632 0.79927 6.98182C0.00454947 8.90045 -0.203386 11.0116 0.201759 13.0484C0.606904 15.0852 1.60693 16.9562 3.07538 18.4246C4.54383 19.8931 6.41476 20.8931 8.45156 21.2982C10.4884 21.7034 12.5996 21.4955 14.5182 20.7007C16.4368 19.906 18.0767 18.5602 19.2304 16.8335C20.3842 15.1068 21 13.0767 21 11C20.9968 8.2162 19.8896 5.54733 17.9211 3.57889C15.9527 1.61044 13.2838 0.503176 10.5 0.5ZM10.5 20C8.11306 20 5.82387 19.0518 4.13604 17.364C2.44822 15.6761 1.5 13.3869 1.5 11C1.5 8.61305 2.44822 6.32387 4.13604 4.63604C5.82387 2.94821 8.11306 2 10.5 2V11L16.8608 17.3608C16.0266 18.1979 15.0352 18.862 13.9437 19.3149C12.8521 19.7679 11.6818 20.0007 10.5 20Z" fill="#15284B"/>
</svg>
