<svg width="25" height="24" viewBox="0 0 25 24" fill="none" xmlns="http://www.w3.org/2000/svg">
<path d="M6.5 12L12.5 6L18.5 12L12.5 18L6.5 12Z" fill="#15284B"/>
<path d="M12.5 3C14.28 3 16.0201 3.52784 17.5001 4.51677C18.9802 5.50571 20.1337 6.91131 20.8149 8.55585C21.4961 10.2004 21.6743 12.01 21.3271 13.7558C20.9798 15.5016 20.1226 17.1053 18.864 18.364C17.6053 19.6226 16.0016 20.4798 14.2558 20.8271C12.51 21.1743 10.7004 20.9961 9.05585 20.3149C7.41132 19.6337 6.00571 18.4802 5.01678 17.0001C4.02785 15.5201 3.5 13.78 3.5 12C3.50278 9.6139 4.45189 7.32633 6.13911 5.63911C7.82634 3.95188 10.1139 3.00278 12.5 3ZM12.5 1.5C10.4233 1.5 8.39323 2.11581 6.66652 3.26957C4.9398 4.42332 3.59399 6.0632 2.79927 7.98182C2.00455 9.90045 1.79661 12.0116 2.20176 14.0484C2.6069 16.0852 3.60693 17.9562 5.07538 19.4246C6.54383 20.8931 8.41476 21.8931 10.4516 22.2982C12.4884 22.7034 14.5996 22.4955 16.5182 21.7007C18.4368 20.906 20.0767 19.5602 21.2304 17.8335C22.3842 16.1068 23 14.0767 23 12C23 9.21523 21.8938 6.54451 19.9246 4.57538C17.9555 2.60625 15.2848 1.5 12.5 1.5Z" fill="#616161"/>
</svg>
