<svg width="13" height="12" viewBox="0 0 13 12" fill="none" xmlns="http://www.w3.org/2000/svg">
<path d="M2.63333 6.5H2.92901L2.89561 6.56938L3.14645 6.82022C3.24184 6.91562 3.33333 7.11646 3.33333 7.33333C3.33333 7.79052 2.95719 8.16667 2.5 8.16667C2.04281 8.16667 1.66667 7.79052 1.66667 7.33333C1.66667 6.87614 2.04281 6.5 2.5 6.5H2.63333ZM4.07099 4.16667L4.10439 4.09729L3.85355 3.84645C3.75816 3.75105 3.66667 3.55021 3.66667 3.33333C3.66667 2.87614 4.04281 2.5 4.5 2.5C4.95719 2.5 5.33333 2.87614 5.33333 3.33333V3.46667V3.75283L5.27191 3.72098L5.01311 3.97978C4.91772 4.07518 4.71687 4.16667 4.5 4.16667H4.36667H4.07099ZM7.39683 4.82279L6.09023 4.1453L7.41643 4.78383L7.73605 4.93773L7.98689 4.68689C8.08229 4.59149 8.28313 4.5 8.5 4.5H8.63333H8.92901L8.91767 4.52356L9.1 4.76667C9.2671 4.98946 9.33333 5.15154 9.33333 5.33333C9.33333 5.79052 8.95719 6.16667 8.5 6.16667C8.04281 6.16667 7.66667 5.79052 7.66667 5.33333V5.26667V4.96271L7.39683 4.82279ZM10.3667 2.16667H10.071L10.1044 2.09729L9.85355 1.84645C9.75816 1.75105 9.66667 1.55021 9.66667 1.33333C9.66667 0.876142 10.0428 0.5 10.5 0.5C10.9572 0.5 11.3333 0.876143 11.3333 1.33333C11.3333 1.79052 10.9572 2.16667 10.5 2.16667H10.3667ZM1 11.1667H12V11.5H1V11.1667Z" fill="#757575" stroke="#15284B"/>
</svg>
