<svg width="25" height="24" viewBox="0 0 25 24" fill="none" xmlns="http://www.w3.org/2000/svg">
<g clip-path="url(#clip0)">
<path d="M21.9979 11.9963L24.1535 9.88666C24.796 9.27836 24.4964 8.19733 23.6536 7.99577L20.7169 7.24624L21.5447 4.33929C21.7787 3.50313 20.9902 2.71446 20.1544 2.94846L17.2484 3.7766L16.4991 0.838896C16.3009 0.00925523 15.2077 -0.294167 14.6089 0.338833L12.5 2.51111L10.3911 0.33888C9.79911 -0.286948 8.70144 -0.000213593 8.50091 0.838943L7.75165 3.77665L4.84564 2.94851C4.00953 2.71441 3.22137 3.50336 3.45528 4.33933L4.28314 7.24629L1.34642 7.99582C0.503233 8.19743 0.204217 9.27865 0.846499 9.88666L3.00205 11.9963L0.846499 14.1058C0.203936 14.7141 0.503561 15.7952 1.34637 15.9967L4.28309 16.7463L3.45523 19.6532C3.22128 20.4894 4.00972 21.278 4.84559 21.044L7.75156 20.2159L8.50081 23.1536C8.70889 24.0243 9.79906 24.2794 10.391 23.6537L12.5 21.4974L14.6089 23.6537C15.1948 24.2859 16.2957 24.0046 16.4991 23.1536L17.2483 20.2159L20.1543 21.044C20.9904 21.2781 21.7786 20.4892 21.5447 19.6532L20.7168 16.7463L23.6535 15.9967C24.4967 15.7951 24.7957 14.7139 24.1534 14.1058L21.9979 11.9963Z" fill="#15284B"/>
<path d="M6.5 11.1889L10.2888 15L18.5 8" stroke="white" stroke-width="2" stroke-linecap="round"/>
</g>
<defs>
<clipPath id="clip0">
<rect width="24" height="24" fill="white" transform="translate(0.5)"/>
</clipPath>
</defs>
</svg>
