<svg width="24" height="24" viewBox="0 0 24 24" fill="none" xmlns="http://www.w3.org/2000/svg">
<path fill-rule="evenodd" clip-rule="evenodd" d="M1.04247 0.903L0.0730208 1.80612L0.404734 2.14603C0.70807 2.45689 0.75516 2.46988 0.955142 2.29747C1.07538 2.19386 1.2427 2.06976 1.32673 2.02182C1.44831 1.95253 1.47962 3.3616 1.47962 8.89303V15.8514L1.10999 15.4964L0.740238 15.1413L0.370119 15.5124L0 15.8835L0.994404 16.7677L1.98881 17.6519L2.68208 17.0476C3.06345 16.7153 3.49925 16.3102 3.65055 16.1473L3.92563 15.8513L3.57937 15.5186L3.2331 15.1861L2.91802 15.4345C2.74482 15.5711 2.57041 15.6829 2.53053 15.6829C2.49078 15.6829 2.45812 12.5928 2.45812 8.81602C2.45812 5.03921 2.48785 1.9491 2.52417 1.9491C2.56062 1.9491 2.75277 2.06952 2.95129 2.21667L3.31236 2.48423L3.61912 2.19533C3.78779 2.03641 3.92588 1.86658 3.92588 1.81814C3.92588 1.76958 3.49521 1.34064 2.9689 0.864864L2.0118 0L1.04247 0.903ZM7.91059 0.998769C7.87597 1.21802 7.78876 2.47332 7.7166 3.78845C7.64444 5.10359 7.56139 6.3313 7.53215 6.51683L7.47907 6.85404H9.98343H12.4878V7.40585V7.95765H9.99015H7.4924L7.42232 8.72405C7.38366 9.14563 7.26918 10.9527 7.1679 12.74C7.06651 14.5272 6.95716 16.224 6.92487 16.5106L6.86604 17.0318H12.8955H18.9249L18.7607 15.407C18.6703 14.5135 18.5695 13.6581 18.5365 13.5064L18.4765 13.2305H15.2375H11.9985V11.6977V10.1649H12.4829H12.9671L13.0027 11.1765L13.0382 12.1882L16.2489 12.2209C18.342 12.2421 19.4596 12.2974 19.4596 12.3795C19.4596 12.5493 19.808 15.8573 19.8947 16.5106L19.9639 17.0318H21.982H24L23.9276 16.2041C23.8202 14.977 23.4959 10.0577 23.4959 9.65489V9.30651H20.4666H17.4372L17.1029 7.08752C16.9191 5.86692 16.7378 4.81849 16.7002 4.75767C16.6627 4.69673 15.5895 4.64682 14.3153 4.64682H11.9985V2.62353V0.600242H9.98587H7.97334L7.91059 0.998769ZM13.0586 0.682032C13.0137 0.726912 12.977 1.41667 12.977 2.21483V3.66583H15.301C16.5792 3.66583 17.629 3.67956 17.634 3.69649C17.6389 3.71341 17.7914 4.74798 17.9729 5.99568L18.3028 8.26421L20.8382 8.29732L23.3736 8.33055V7.98365C23.3736 7.5476 23.0336 2.39606 22.937 1.36664L22.8649 0.600242H18.0025C15.3283 0.600242 13.1034 0.637029 13.0586 0.682032ZM20.9885 20.4653L20.637 20.8331L20.9885 21.201L21.3401 21.5689H14.2002H7.06027L7.38941 21.2244L7.71856 20.88L7.34881 20.5247L6.97893 20.1696L6.06317 21.0816C5.55961 21.5831 5.16161 22.0285 5.17885 22.0714C5.1961 22.1142 5.59949 22.5657 6.07541 23.0747L6.94065 24L7.33792 23.6883L7.73507 23.3767L7.33535 22.9632L6.93576 22.5499H14.1379H21.3401L20.9808 22.9272L20.6216 23.3045L20.9648 23.6016C21.1535 23.7651 21.3474 23.8987 21.3955 23.8987C21.4437 23.8987 21.8581 23.4836 22.3165 22.9762L23.1498 22.0537L22.2703 21.0756C21.7865 20.5376 21.3793 20.0974 21.3654 20.0974C21.3514 20.0974 21.1819 20.2629 20.9885 20.4653Z" fill="#FF7777"/>
</svg>
